<?xml version="1.0" encoding="UTF-8"?>
<!--Generator: Apple Native CoreSVG 175.5-->
<!DOCTYPE svg
PUBLIC "-//W3C//DTD SVG 1.1//EN"
       "http://www.w3.org/Graphics/SVG/1.1/DTD/svg11.dtd">
<svg version="1.1" xmlns="http://www.w3.org/2000/svg" xmlns:xlink="http://www.w3.org/1999/xlink" width="181.348" height="148.145">
 <g>
  <rect height="148.145" opacity="0" width="181.348" x="0" y="0"/>
  <path d="M181.348 74.0234C181.348 71.582 180.371 69.3359 178.418 67.4805L113.672 2.92969C111.523 0.78125 109.473 0 107.129 0C102.344 0 98.6328 3.51562 98.6328 8.39844C98.6328 10.7422 99.4141 12.9883 100.977 14.5508L122.852 36.8164L161.621 72.168L163.574 67.2852L132.129 65.332L8.59375 65.332C3.51562 65.332 0 68.9453 0 74.0234C0 79.1016 3.51562 82.7148 8.59375 82.7148L132.129 82.7148L163.574 80.7617L161.621 75.9766L122.852 111.23L100.977 133.496C99.4141 134.961 98.6328 137.305 98.6328 139.648C98.6328 144.531 102.344 148.047 107.129 148.047C109.473 148.047 111.523 147.168 113.477 145.312L178.418 80.5664C180.371 78.7109 181.348 76.4648 181.348 74.0234Z" fill="#002d59"/>
 </g>
</svg>
