<?xml version="1.0" encoding="UTF-8"?>
<!--Generator: Apple Native CoreSVG 175.5-->
<!DOCTYPE svg
PUBLIC "-//W3C//DTD SVG 1.1//EN"
       "http://www.w3.org/Graphics/SVG/1.1/DTD/svg11.dtd">
<svg version="1.1" xmlns="http://www.w3.org/2000/svg" xmlns:xlink="http://www.w3.org/1999/xlink" width="148.047" height="184.473">
 <g>
  <rect height="184.473" opacity="0" width="148.047" x="0" y="0"/>
  <path d="M74.0234 0C68.9453 0 65.332 3.51562 65.332 8.59375L65.332 137.207L66.3086 166.309L71.7773 164.355L36.8164 125.977L14.5508 104.102C13.0859 102.539 10.7422 101.758 8.39844 101.758C3.51562 101.758 0 105.469 0 110.254C0 112.598 0.878906 114.648 2.73438 116.602L67.4805 181.543C69.3359 183.496 71.582 184.473 74.0234 184.473C76.4648 184.473 78.7109 183.496 80.5664 181.543L145.41 116.602C147.266 114.648 148.047 112.598 148.047 110.254C148.047 105.469 144.531 101.758 139.648 101.758C137.305 101.758 135.059 102.539 133.496 104.102L111.23 125.977L76.1719 164.355L81.7383 166.309L82.7148 137.207L82.7148 8.59375C82.7148 3.51562 79.1016 0 74.0234 0Z" fill="#002d59"/>
 </g>
</svg>
