<?xml version="1.0" encoding="UTF-8"?>
<!--Generator: Apple Native CoreSVG 175.5-->
<!DOCTYPE svg
PUBLIC "-//W3C//DTD SVG 1.1//EN"
       "http://www.w3.org/Graphics/SVG/1.1/DTD/svg11.dtd">
<svg version="1.1" xmlns="http://www.w3.org/2000/svg" xmlns:xlink="http://www.w3.org/1999/xlink" width="148.047" height="184.473">
 <g>
  <rect height="184.473" opacity="0" width="148.047" x="0" y="0"/>
  <path d="M74.0234 184.473C79.1016 184.473 82.7148 180.957 82.7148 175.879L82.7148 47.2656L81.7383 18.1641L76.1719 20.1172L111.23 58.4961L133.496 80.3711C135.059 81.9336 137.305 82.7148 139.648 82.7148C144.531 82.7148 148.047 79.0039 148.047 74.2188C148.047 71.875 147.266 69.8242 145.41 67.8711L80.5664 2.92969C78.7109 0.976562 76.4648 0 74.0234 0C71.582 0 69.3359 0.976562 67.4805 2.92969L2.73438 67.8711C0.878906 69.8242 0 71.875 0 74.2188C0 79.0039 3.51562 82.7148 8.39844 82.7148C10.7422 82.7148 13.0859 81.9336 14.5508 80.3711L36.8164 58.4961L71.7773 20.1172L66.3086 18.1641L65.332 47.2656L65.332 175.879C65.332 180.957 68.9453 184.473 74.0234 184.473Z" fill="#002d59"/>
 </g>
</svg>
